<svg width="43" height="43" viewBox="0 0 43 43" fill="none" xmlns="http://www.w3.org/2000/svg">
<circle cx="21.3333" cy="21.5" r="21" fill="#292642"/>
<path d="M15.5 24C13.6583 24 12.1666 25.4917 12.1666 27.3333C12.1666 27.9583 12.3416 28.55 12.65 29.05C13.225 30.0167 14.2833 30.6667 15.5 30.6667C16.7166 30.6667 17.775 30.0167 18.35 29.05C18.6583 28.55 18.8333 27.9583 18.8333 27.3333C18.8333 25.4917 17.3416 24 15.5 24ZM16.7416 27.9417H16.125V28.5917C16.125 28.9333 15.8416 29.2167 15.5 29.2167C15.1583 29.2167 14.875 28.9333 14.875 28.5917V27.9417H14.2583C13.9166 27.9417 13.6333 27.6583 13.6333 27.3167C13.6333 26.975 13.9166 26.6917 14.2583 26.6917H14.875V26.1C14.875 25.7583 15.1583 25.475 15.5 25.475C15.8416 25.475 16.125 25.7583 16.125 26.1V26.6917H16.7416C17.0833 26.6917 17.3666 26.975 17.3666 27.3167C17.3666 27.6583 17.0916 27.9417 16.7416 27.9417ZM29.25 21.9167H27.1666C26.25 21.9167 25.5 22.6667 25.5 23.5833C25.5 24.5 26.25 25.25 27.1666 25.25H29.25C29.4833 25.25 29.6666 25.0667 29.6666 24.8333V22.3333C29.6666 22.1 29.4833 21.9167 29.25 21.9167ZM25.1076 16.0001C25.3576 16.2418 25.1493 16.6168 24.7993 16.6168L17.8993 16.6085C17.4993 16.6085 17.2993 16.1251 17.5827 15.8418L19.041 14.3751C20.2743 13.1501 22.266 13.1501 23.4993 14.3751L25.0743 15.9668C25.0826 15.9751 25.0993 15.9918 25.1076 16.0001Z" fill="white"/>
<path d="M29.5578 27.05C29.0495 28.7667 27.5828 29.8333 25.5828 29.8333H20.1661C19.8411 29.8333 19.6328 29.475 19.7661 29.175C20.0161 28.5917 20.1745 27.9333 20.1745 27.3333C20.1745 24.8083 18.1161 22.75 15.5911 22.75C14.9578 22.75 14.3411 22.8833 13.7745 23.1333C13.4661 23.2667 13.0911 23.0583 13.0911 22.725V21.5C13.0911 19.2333 14.4578 17.65 16.5828 17.3833C16.7911 17.35 17.0161 17.3333 17.2495 17.3333H25.5828C25.7995 17.3333 26.0078 17.3417 26.2078 17.375C27.8911 17.5667 29.1078 18.5917 29.5578 20.1167C29.6411 20.3917 29.4411 20.6667 29.1578 20.6667H27.2495C25.4411 20.6667 24.0078 22.3167 24.3995 24.1917C24.6745 25.5583 25.9411 26.5 27.3328 26.5H29.1578C29.4495 26.5 29.6411 26.7833 29.5578 27.05Z" fill="white"/>
</svg>
